<svg height="110" viewBox="0 0 826 110" width="826" xmlns="http://www.w3.org/2000/svg"><g fill="#fff" fill-rule="evenodd"><text font-family="Newzald-Bold, Newzald" font-size="100" font-weight="bold"><tspan x="124" y="80">PÄtaka Raraunga</tspan></text><g transform="translate(.246)"><path d="m101.111151 75.905812h-15.806518v-33.4203837c-1.0881619-.2457685-1.9722013-1.0144237-2.3795615-2.0323965h-15.6717149v-33.86016448c-1.0430308-.29427162-1.8754496-1.08037612-2.2412184-2.09125089h-6.8587535v-.04524981h-13.6411085c-.3315517.96621647-1.0911117 1.73132269-2.0512546 2.07054836v33.88116272h-15.8619737c-.3728481.9730188-1.181079 1.7277737-2.1893028 2.0220453v33.434284h-15.80651837l4.92814357 4.9133009c.5076516-.3152699 1.1049755-.4986351 1.7474306-.4986351 1.4468513 0 2.6763062.9212624 3.145906 2.2092553l11.0789576.0795568c.2383397-1.1185279 1.0256273-2.0291433 2.0686582-2.4343213v-28.8359571c-1.2536428-.4847349-2.1412219-1.7035222-2.1412219-3.130222 0-1.8555378 1.4987668-3.3620902 3.3497335-3.3620902 1.4297428 0 2.6488735.9002641 3.1287975 2.1640055l13.0992399-.0032533.2173964-31.2356757c-1.1327032-.5367869-1.9199908-1.6931708-1.9199908-3.036469 0-1.8561294 1.4987668-3.35883702 3.3497335-3.35883702 1.3262066 0 2.4692339.77220422 3.0113975 1.89398542h2.1721943c.5421636-1.1217812 1.6851909-1.89398542 3.0113975-1.89398542 1.8512617 0 3.3500285 1.50270762 3.3500285 3.35883702 0 1.2637413-.6908309 2.3580177-1.7164582 2.9326607l-.1932085 31.160555 13.2921534.2238831c.4695999-1.2847397 1.69581-2.2057063 3.1426613-2.2057063 1.8509667 0 3.3532733 1.5065524 3.3532733 3.3620902 0 1.347143-.7940721 2.5070759-1.9373944 3.0435671v29.0128159c.9530635.4468788 1.661003 1.3261446 1.871615 2.3890715l11.0547697-.0795569c.455736-1.3122444 1.6990547-2.2542093 3.1600648-2.2542093.7076445 0 1.3604236.221517 1.9025873.5956412zm7.642502-2.7214949c0 1.8558336-1.498767 3.3620902-3.349734 3.3620902-.563106 0-1.088162-.1416644-1.554222-.3844755l-6.440774 6.4195576c.1106156.3327192.1725603.6893941.1725603 1.0596736 0 1.8561294-1.5023066 3.358837-3.3529783 3.358837-1.4990618 0-2.7662735-.986919-3.1945769-2.3509197l-11.2928143.0828101c-.5457034 1.1185279-1.6887306 1.8939854-3.0149372 1.8939854-1.8512617 0-3.3500286-1.5027077-3.3500286-3.3585413 0-1.617163 1.1362429-2.9672635 2.655658-3.2893356v-28.5242362c-1.205267-.2531624-2.1683596-1.1569755-2.5173148-2.3237107l-15.2879527.0230685v-33.4197922c-1.4126342-.2008145-2.3901806-.9966787-2.6630323-2.38848h-1.6164618c-.2589878 1.3225957-1.4843131 2.114911-2.7999006 2.38848l-.0424763 33.3517696h-15.1018237c-.3176878 1.1220769-1.1981875 2.0048918-2.3205666 2.3166127v28.6315936c1.4123393.394531 2.4521254 1.6896219 2.4521254 3.2340303 0 1.8558336-1.5026016 3.3585413-3.3535683 3.3585413-1.3433151 0-2.5002062-.79616-3.0355854-1.9421927l-11.2583023-.0798526c-.4108999 1.384999-1.6919753 2.3961695-3.2081457 2.3961695-1.8512617 0-3.3532733-1.5027076-3.3532733-3.358837 0-.4397808.0861327-.8585633.2380447-1.2430388l-6.34726726-6.3258047c-.50086717.2978206-1.08432728.4740878-1.70967381.4740878-1.85096673 0-3.35297829-1.5062566-3.35297829-3.3620902s1.50201156-3.3585413 3.35297829-3.3585413c1.8512617 0 3.35002854 1.5027077 3.35002854 3.3585413 0 .190759-.01740351.3773774-.04837586.5610384h14.89150659v-31.3947893c-1.274586-.4779326-2.1792736-1.7038179-2.1792736-3.1441222 0-1.8558336 1.4987668-3.3620903 3.3497336-3.3620903 1.5368185 0 2.8249734 1.0351263 3.2255491 2.4482216h13.6549724v-31.72395951c-1.3639633-.42588054-2.3550786-1.7002689-2.3550786-3.2062298 0-1.85612934 1.5020116-3.36238599 3.3532733-3.36238599 1.4952271 0 2.759194.98366574 3.1910371 2.3408642h15.7268752v.04495406h4.6865593c.4179792-1.38144999 1.695515-2.38581826 3.2081456-2.38581826 1.8509668 0 3.3497336 1.50625665 3.3497336 3.36238599 0 1.42995306-.8908238 2.64519134-2.1480063 3.1334752v31.83811921h13.4408207c.3834672-1.4302488 1.6819461-2.4896267 3.2323336-2.4896267 1.8512617 0 3.3532732 1.5062567 3.3532732 3.3620903 0 1.3607474-.8111806 2.5313274-1.9716114 3.0610163v31.5228493h14.6912187c-.038052-.1972655-.058995-.39808-.058995-.6059925 0-1.8558336 1.502307-3.3585413 3.353568-3.3585413 1.850967 0 3.349734 1.5027077 3.349734 3.3585413z"/><path d="m78.2719365 100.874115 7.075801-6.5909561h-16.5809592v-36.1127124h-9.1842211v-.0418879h-15.838457v36.1094445h-16.5842341l7.0790758 6.5909559h16.1138438l.2506763-35.9457546h2.3212867v.0451557h8.9790952l.2542489 35.9421899zm.8398551 2.124994-19.3431623.000891.0193515-35.9466462h-7.0686557l-.0958644 35.9466462-19.2246715-.04575-11.6451363-10.8412405h19.8573167v-36.1130095h20.1011456v.0454528h9.1845188v36.1127124h19.8570189z"/></g></g></svg>